<svg width="33" height="54" viewBox="0 0 33 54" fill="none" xmlns="http://www.w3.org/2000/svg">
<path d="M12.912 35.672L12.768 35.848C12.6613 35.9547 12.48 36.0933 12.224 36.264C11.9787 36.424 11.68 36.5893 11.328 36.76C10.9867 36.92 10.528 37.0533 9.952 37.16C9.376 37.2773 8.75733 37.336 8.096 37.336C6.69867 37.336 5.504 37.1067 4.512 36.648C3.52 36.1787 2.74133 35.5013 2.176 34.616C1.62133 33.72 1.22133 32.712 0.976 31.592C0.730667 30.4613 0.608 29.1547 0.608 27.672C0.608 26.0933 0.730667 24.7333 0.976 23.592C1.22133 22.44 1.62667 21.432 2.192 20.568C2.768 19.6933 3.55733 19.0373 4.56 18.6C5.56267 18.1627 6.784 17.944 8.224 17.944C8.88533 17.944 9.504 18.0027 10.08 18.12C10.6667 18.2373 11.1253 18.3707 11.456 18.52C11.7973 18.6693 12.1013 18.84 12.368 19.032C12.6453 19.224 12.816 19.3573 12.88 19.432C12.9547 19.5067 13.008 19.5653 13.04 19.608L12.8 23.288H10.368L9.536 21.384C9.344 21.3307 9.184 21.304 9.056 21.304C8.34133 21.304 7.792 21.4693 7.408 21.8C7.024 22.12 6.73067 22.7547 6.528 23.704C6.32533 24.6427 6.224 25.9973 6.224 27.768C6.224 28.824 6.288 29.7467 6.416 30.536C6.55467 31.3253 6.72 31.9333 6.912 32.36C7.104 32.776 7.33333 33.112 7.6 33.368C7.86667 33.624 8.10667 33.7893 8.32 33.864C8.53333 33.928 8.76267 33.96 9.008 33.96C9.552 33.96 10.1227 33.896 10.72 33.768C11.3173 33.6293 11.808 33.4213 12.192 33.144L12.912 35.672Z" fill="#00F080"/>
<path d="M30.912 35.672L30.768 35.848C30.6613 35.9547 30.48 36.0933 30.224 36.264C29.9787 36.424 29.68 36.5893 29.328 36.76C28.9867 36.92 28.528 37.0533 27.952 37.16C27.376 37.2773 26.7573 37.336 26.096 37.336C24.6987 37.336 23.504 37.1067 22.512 36.648C21.52 36.1787 20.7413 35.5013 20.176 34.616C19.6213 33.72 19.2213 32.712 18.976 31.592C18.7307 30.4613 18.608 29.1547 18.608 27.672C18.608 26.0933 18.7307 24.7333 18.976 23.592C19.2213 22.44 19.6267 21.432 20.192 20.568C20.768 19.6933 21.5573 19.0373 22.56 18.6C23.5627 18.1627 24.784 17.944 26.224 17.944C26.8853 17.944 27.504 18.0027 28.08 18.12C28.6667 18.2373 29.1253 18.3707 29.456 18.52C29.7973 18.6693 30.1013 18.84 30.368 19.032C30.6453 19.224 30.816 19.3573 30.88 19.432C30.9547 19.5067 31.008 19.5653 31.04 19.608L30.8 23.288H28.368L27.536 21.384C27.344 21.3307 27.184 21.304 27.056 21.304C26.3413 21.304 25.792 21.4693 25.408 21.8C25.024 22.12 24.7307 22.7547 24.528 23.704C24.3253 24.6427 24.224 25.9973 24.224 27.768C24.224 28.824 24.288 29.7467 24.416 30.536C24.5547 31.3253 24.72 31.9333 24.912 32.36C25.104 32.776 25.3333 33.112 25.6 33.368C25.8667 33.624 26.1067 33.7893 26.32 33.864C26.5333 33.928 26.7627 33.96 27.008 33.96C27.552 33.96 28.1227 33.896 28.72 33.768C29.3173 33.6293 29.808 33.4213 30.192 33.144L30.912 35.672Z" fill="#00F080"/>
<path d="M15.368 29H10.072V10.248H12.184C12.7493 10.248 13.6027 10.2267 14.744 10.184C15.8853 10.1307 16.824 10.104 17.56 10.104C19.6293 10.104 21.1973 10.6533 22.264 11.752C23.3307 12.8507 23.864 14.4987 23.864 16.696C23.864 18.0187 23.688 19.224 23.336 20.312C22.9947 21.3893 22.5307 22.2747 21.944 22.968C21.3573 23.6613 20.6907 24.1947 19.944 24.568C19.1973 24.9413 18.408 25.128 17.576 25.128C17.4693 25.128 17.3573 25.128 17.24 25.128C17.1333 25.128 17.032 25.128 16.936 25.128C16.8507 25.1173 16.744 25.112 16.616 25.112C16.4987 25.1013 16.4027 25.096 16.328 25.096C16.264 25.0853 16.168 25.08 16.04 25.08C15.9227 25.0693 15.8427 25.064 15.8 25.064C15.7573 25.064 15.6773 25.0587 15.56 25.048C15.4427 25.0373 15.3787 25.032 15.368 25.032V29ZM18.616 15.992C18.616 15.2027 18.4027 14.5627 17.976 14.072C17.5493 13.5813 16.936 13.336 16.136 13.336H15.368V21.656H15.96C16.8027 21.656 17.4533 21.3733 17.912 20.808C18.3813 20.2427 18.616 19.4267 18.616 18.36V15.992Z" fill="#00F080"/>
</svg>
